<?xml version="1.0" encoding="UTF-8" standalone="no"?>
<svg width="124px" height="100px" viewBox="0 0 124 100" version="1.1" xmlns="http://www.w3.org/2000/svg" xmlns:xlink="http://www.w3.org/1999/xlink" xmlns:sketch="http://www.bohemiancoding.com/sketch/ns">
    <!-- Generator: Sketch 3.3.3 (12072) - http://www.bohemiancoding.com/sketch -->
    <title>alt-three-logo--alternate@1x</title>
    <desc>Created with Sketch.</desc>
    <defs></defs>
    <g id="Alt-Three" stroke="none" stroke-width="1" fill="none" fill-rule="evenodd" sketch:type="MSPage">
        <g id="Brand-Sheet" sketch:type="MSArtboardGroup" transform="translate(-91.000000, -196.000000)">
            <g id="alt-three-logo--alternate" sketch:type="MSLayerGroup" transform="translate(91.000000, 196.000000)">
                <path d="M7.70962845,91.2424206 L10.5213753,83.3211553 L10.581843,83.3211553 L13.3028883,91.2424206 L7.70962845,91.2424206 Z M8.16313601,78 L0,99.5869597 L4.77694626,99.5869597 L6.47004113,94.7797796 L14.5424756,94.7797796 L16.1751028,99.5869597 L21.1032183,99.5869597 L13.0307838,78 L8.16313601,78 Z M21.889298,78 L21.889298,99.5869597 L26.1825029,99.5869597 L26.1825029,78 L21.889298,78 Z M34.2549374,83.9560659 L34.2549374,79.2698212 L29.9617325,79.2698212 L29.9617325,83.9560659 L27.3616225,83.9560659 L27.3616225,86.8282804 L29.9617325,86.8282804 L29.9617325,96.0496007 C29.9617325,96.8356844 30.0927445,97.4705886 30.3547724,97.9543325 C30.6168003,98.4380763 30.9745638,98.8109565 31.4280736,99.0729844 C31.8815834,99.3350123 32.4056314,99.5113746 33.0002332,99.6020766 C33.5948349,99.6927785 34.2247002,99.7381288 34.889848,99.7381288 C35.3131238,99.7381288 35.7464711,99.728051 36.189903,99.707895 C36.6333348,99.687739 37.0364486,99.6474276 37.3992564,99.5869597 L37.3992564,96.2612376 C37.1976965,96.3015496 36.9860618,96.3317831 36.7643459,96.3519391 C36.54263,96.3720951 36.3108395,96.3821729 36.0689676,96.3821729 C35.3433519,96.3821729 34.8596153,96.2612388 34.6177434,96.0193669 C34.3758715,95.777495 34.2549374,95.2937584 34.2549374,94.5681427 L34.2549374,86.8282804 L37.3992564,86.8282804 L37.3992564,83.9560659 L34.2549374,83.9560659 Z M51.578926,81.9908665 L51.578926,99.5869597 L56.3256384,99.5869597 L56.3256384,81.9908665 L62.7956796,81.9908665 L62.7956796,78 L45.1088849,78 L45.1088849,81.9908665 L51.578926,81.9908665 Z M64.0655007,78 L64.0655007,99.5869597 L68.3587056,99.5869597 L68.3587056,91.3935898 C68.3587056,89.8012664 68.6207296,88.657431 69.1447854,87.9620493 C69.6688412,87.2666676 70.5153801,86.9189819 71.6844277,86.9189819 C72.7123833,86.9189819 73.4279103,87.236434 73.8310301,87.8713478 C74.2341499,88.5062616 74.4357068,89.4686957 74.4357068,90.7586792 L74.4357068,99.5869597 L78.7289117,99.5869597 L78.7289117,89.9725995 C78.7289117,89.0051119 78.64325,88.1233004 78.4719241,87.3271387 C78.3005982,86.530977 78.0033017,85.8557614 77.5800259,85.3014716 C77.1567501,84.7471819 76.577274,84.3138345 75.8415803,84.0014167 C75.1058866,83.6889988 74.1636081,83.5327922 73.0147165,83.5327922 C72.2084768,83.5327922 71.3820935,83.739388 70.5355419,84.1525858 C69.6889902,84.5657837 68.9936189,85.2258825 68.4494071,86.1329022 L68.3587056,86.1329022 L68.3587056,78 L64.0655007,78 Z M81.2383202,83.9560659 L81.2383202,99.5869597 L85.531525,99.5869597 L85.531525,92.5424756 C85.531525,91.8370159 85.60207,91.181956 85.7431619,90.5772762 C85.8842538,89.9725965 86.1210832,89.4435096 86.4536571,88.9899998 C86.7862309,88.5364899 87.2246172,88.1787265 87.768829,87.9166986 C88.3130408,87.6546707 88.9781785,87.5236587 89.7642622,87.5236587 C90.0262901,87.5236587 90.2983919,87.5387754 90.5805758,87.5690094 C90.8627597,87.5992434 91.104628,87.6345159 91.3061879,87.6748279 L91.3061879,83.6839614 C90.9635361,83.5831814 90.6511229,83.5327922 90.368939,83.5327922 C89.8247272,83.5327922 89.3006792,83.6134149 88.7967794,83.7746629 C88.2928796,83.9359108 87.8192209,84.1626623 87.3757891,84.4549242 C86.9323573,84.7471861 86.5393213,85.0999107 86.1966695,85.5131085 C85.8540176,85.9263063 85.5819158,86.3747704 85.3803559,86.8585143 L85.3198882,86.8585143 L85.3198882,83.9560659 L81.2383202,83.9560659 Z M102.220603,90.0935348 L95.2365867,90.0935348 C95.2567427,89.7911949 95.3222487,89.4485482 95.4331067,89.0655844 C95.5439646,88.6826205 95.7354437,88.3198181 96.0075496,87.9771662 C96.2796555,87.6345144 96.6424579,87.3472958 97.0959677,87.1155019 C97.5494775,86.883708 98.1188758,86.7678127 98.8041795,86.7678127 C99.8522911,86.7678127 100.633324,87.0499924 101.147302,87.6143602 C101.66128,88.178728 102.019043,89.0051112 102.220603,90.0935348 L102.220603,90.0935348 Z M95.2365867,92.8145802 L106.513808,92.8145802 C106.594432,91.6052206 106.493653,90.4462685 106.21147,89.3376889 C105.929286,88.2291093 105.470744,87.2414805 104.83583,86.3747729 C104.200916,85.5080652 103.38965,84.8177328 102.402006,84.303755 C101.414363,83.7897772 100.25541,83.5327922 98.9251149,83.5327922 C97.7359113,83.5327922 96.652543,83.7444269 95.6749774,84.1677028 C94.6974118,84.5909786 93.8559117,85.1704547 93.150452,85.9061484 C92.4449923,86.6418421 91.9007886,87.5135757 91.5178248,88.5213753 C91.1348609,89.5291749 90.9433819,90.6175822 90.9433819,91.7866297 C90.9433819,92.9959892 91.129822,94.1045522 91.5027079,95.1123518 C91.8755937,96.1201514 92.4046806,96.986846 93.0899843,97.7124618 C93.775288,98.4380775 94.6117492,98.9973979 95.5993928,99.3904397 C96.5870364,99.7834816 97.6955993,99.9799995 98.9251149,99.9799995 C100.698842,99.9799995 102.210519,99.5768857 103.46019,98.7706461 C104.709862,97.9644064 105.637024,96.624053 106.241703,94.7495457 L102.462474,94.7495457 C102.321382,95.2332895 101.938424,95.6918315 101.313588,96.1251853 C100.688752,96.5585391 99.9429917,96.7752128 99.076284,96.7752128 C97.8669245,96.7752128 96.9397628,96.4627996 96.294771,95.8379639 C95.6497793,95.2131281 95.2970547,94.2053436 95.2365867,92.8145802 L95.2365867,92.8145802 Z M118.81898,90.0935348 L111.834963,90.0935348 C111.855119,89.7911949 111.920625,89.4485482 112.031483,89.0655844 C112.142341,88.6826205 112.33382,88.3198181 112.605926,87.9771662 C112.878032,87.6345144 113.240834,87.3472958 113.694344,87.1155019 C114.147854,86.883708 114.717252,86.7678127 115.402556,86.7678127 C116.450668,86.7678127 117.231701,87.0499924 117.745678,87.6143602 C118.259656,88.178728 118.61742,89.0051112 118.81898,90.0935348 L118.81898,90.0935348 Z M111.834963,92.8145802 L123.112185,92.8145802 C123.192808,91.6052206 123.09203,90.4462685 122.809846,89.3376889 C122.527662,88.2291093 122.06912,87.2414805 121.434207,86.3747729 C120.799293,85.5080652 119.988026,84.8177328 119.000383,84.303755 C118.012739,83.7897772 116.853787,83.5327922 115.523491,83.5327922 C114.334288,83.5327922 113.25092,83.7444269 112.273354,84.1677028 C111.295788,84.5909786 110.454288,85.1704547 109.748829,85.9061484 C109.043369,86.6418421 108.499165,87.5135757 108.116201,88.5213753 C107.733237,89.5291749 107.541758,90.6175822 107.541758,91.7866297 C107.541758,92.9959892 107.728199,94.1045522 108.101084,95.1123518 C108.47397,96.1201514 109.003057,96.986846 109.688361,97.7124618 C110.373665,98.4380775 111.210126,98.9973979 112.197769,99.3904397 C113.185413,99.7834816 114.293976,99.9799995 115.523491,99.9799995 C117.297219,99.9799995 118.808895,99.5768857 120.058567,98.7706461 C121.308238,97.9644064 122.2354,96.624053 122.84008,94.7495457 L119.06085,94.7495457 C118.919758,95.2332895 118.5368,95.6918315 117.911965,96.1251853 C117.287129,96.5585391 116.541368,96.7752128 115.674661,96.7752128 C114.465301,96.7752128 113.538139,96.4627996 112.893148,95.8379639 C112.248156,95.2131281 111.895431,94.2053436 111.834963,92.8145802 L111.834963,92.8145802 Z" id="Alt-Three-Copy-3" fill="#26A9FF" sketch:type="MSShapeGroup"></path>
                <g id="alt-three-logomark--alt" transform="translate(30.000000, 0.000000)" sketch:type="MSShapeGroup">
                    <rect id="Rectangle-2" fill="#26A9FF" x="0" y="7.44421413e-10" width="64" height="64" rx="5"></rect>
                    <path d="M27.074046,16.3098257 L22.1401126,16.3098257 L21.1453465,24.1323046 L17.1662821,24.1323046 L17.1662821,29.3774349 L20.4670969,29.3774349 L19.8340639,34.6225651 L15.8549995,34.6225651 L15.8549995,39.8676954 L19.1558143,39.8676954 L18.1610482,47.6901743 L23.0949816,47.6901743 L23.0550846,47.6901743 L24.0498507,39.8676954 L20.1638794,39.8676954 L20.7490359,34.6225651 L24.7281003,34.6225651 L25.3611333,29.3774349 L21.4485639,29.3774349 L22.0603185,24.1323046 L26.0393829,24.1323046 L27.034149,16.3098257 L27.074046,16.3098257 L27.074046,16.3098257 Z M37.8808231,39.8676954 L36.886057,47.6901743 L41.8598874,47.6901743 L42.8546535,39.8676954 L46.8337179,39.8676954 L46.8337179,34.6225651 L43.4876865,34.6225651 L44.1659361,29.3774349 L48.1450005,29.3774349 L48.1450005,24.1323046 L44.7989691,24.1323046 L45.7937352,16.3098257 L40.8199047,16.3098257 L39.8251386,24.1323046 L35.8008576,24.1323046 L36.7956237,16.3098257 L31.8217932,16.3098257 L30.8270271,24.1323046 L26.8479628,24.1323046 L26.2362082,29.3774349 L30.1487775,29.3774349 L29.5157446,34.6225651 L25.5366802,34.6225651 L24.9515237,39.8676954 L28.837495,39.8676954 L27.8427289,47.6901743 L32.8165593,47.6901743 L33.8113254,39.8676954 L37.8808231,39.8676954 Z M34.489575,34.6225651 L35.122608,29.3774349 L39.1921056,29.3774349 L38.513856,34.6225651 L34.489575,34.6225651 Z" id="#-copy-9" fill="#FFFFFF"></path>
                </g>
            </g>
        </g>
    </g>
</svg>