<?xml version="1.0" encoding="UTF-8" standalone="no"?>
<svg width="64px" height="64px" viewBox="0 0 64 64" version="1.1" xmlns="http://www.w3.org/2000/svg" xmlns:xlink="http://www.w3.org/1999/xlink" xmlns:sketch="http://www.bohemiancoding.com/sketch/ns">
    <!-- Generator: Sketch 3.3.3 (12072) - http://www.bohemiancoding.com/sketch -->
    <title>alt-three-logomark--alt@1x</title>
    <desc>Created with Sketch.</desc>
    <defs></defs>
    <g id="Alt-Three" stroke="none" stroke-width="1" fill="none" fill-rule="evenodd" sketch:type="MSPage">
        <g id="Brand-Sheet" sketch:type="MSArtboardGroup" transform="translate(-121.000000, -196.000000)">
            <g id="alt-three-logo--alternate" sketch:type="MSLayerGroup" transform="translate(91.000000, 196.000000)">
                <g id="alt-three-logomark--alt" transform="translate(30.000000, 0.000000)" sketch:type="MSShapeGroup">
                    <rect id="Rectangle-2" fill="#26A9FF" x="0" y="7.44421413e-10" width="64" height="64" rx="5"></rect>
                    <path d="M27.074046,16.3098257 L22.1401126,16.3098257 L21.1453465,24.1323046 L17.1662821,24.1323046 L17.1662821,29.3774349 L20.4670969,29.3774349 L19.8340639,34.6225651 L15.8549995,34.6225651 L15.8549995,39.8676954 L19.1558143,39.8676954 L18.1610482,47.6901743 L23.0949816,47.6901743 L23.0550846,47.6901743 L24.0498507,39.8676954 L20.1638794,39.8676954 L20.7490359,34.6225651 L24.7281003,34.6225651 L25.3611333,29.3774349 L21.4485639,29.3774349 L22.0603185,24.1323046 L26.0393829,24.1323046 L27.034149,16.3098257 L27.074046,16.3098257 L27.074046,16.3098257 Z M37.8808231,39.8676954 L36.886057,47.6901743 L41.8598874,47.6901743 L42.8546535,39.8676954 L46.8337179,39.8676954 L46.8337179,34.6225651 L43.4876865,34.6225651 L44.1659361,29.3774349 L48.1450005,29.3774349 L48.1450005,24.1323046 L44.7989691,24.1323046 L45.7937352,16.3098257 L40.8199047,16.3098257 L39.8251386,24.1323046 L35.8008576,24.1323046 L36.7956237,16.3098257 L31.8217932,16.3098257 L30.8270271,24.1323046 L26.8479628,24.1323046 L26.2362082,29.3774349 L30.1487775,29.3774349 L29.5157446,34.6225651 L25.5366802,34.6225651 L24.9515237,39.8676954 L28.837495,39.8676954 L27.8427289,47.6901743 L32.8165593,47.6901743 L33.8113254,39.8676954 L37.8808231,39.8676954 Z M34.489575,34.6225651 L35.122608,29.3774349 L39.1921056,29.3774349 L38.513856,34.6225651 L34.489575,34.6225651 Z" id="#-copy-9" fill="#FFFFFF"></path>
                </g>
            </g>
        </g>
    </g>
</svg>